<?xml version="1.0" encoding="UTF-8" standalone="no"?>
<!-- Created with Inkscape (http://www.inkscape.org/) -->
<svg xmlns:dc="http://purl.org/dc/elements/1.1/" xmlns:cc="http://creativecommons.org/ns#" xmlns:rdf="http://www.w3.org/1999/02/22-rdf-syntax-ns#" xmlns:svg="http://www.w3.org/2000/svg" xmlns="http://www.w3.org/2000/svg" xmlns:sodipodi="http://sodipodi.sourceforge.net/DTD/sodipodi-0.dtd" xmlns:inkscape="http://www.inkscape.org/namespaces/inkscape" width="100.94616mm" height="84.510902mm" viewBox="0 0 100.94616 84.510902" version="1.1" id="svg14617" inkscape:version="0.92.4 (unknown)" sodipodi:docname="superbot.svg">
  <defs id="defs14611"/>
  <sodipodi:namedview id="base" pagecolor="#ffffff" bordercolor="#666666" borderopacity="1.0" inkscape:pageopacity="0.0" inkscape:pageshadow="2" inkscape:zoom="0.80117188" inkscape:cx="536.46893" inkscape:cy="-56.657114" inkscape:document-units="mm" inkscape:current-layer="layer1" showgrid="false" fit-margin-top="0" fit-margin-left="0" fit-margin-right="0" fit-margin-bottom="0" inkscape:window-width="2560" inkscape:window-height="1398" inkscape:window-x="0" inkscape:window-y="42" inkscape:window-maximized="1"/>
  <metadata id="metadata14614">
    <rdf:RDF>
      <cc:Work rdf:about="">
        <dc:format>image/svg+xml</dc:format>
        <dc:type rdf:resource="http://purl.org/dc/dcmitype/StillImage"/>
        <dc:title/>
      </cc:Work>
    </rdf:RDF>
  </metadata>
  <g inkscape:label="Layer 1" inkscape:groupmode="layer" id="layer1" transform="translate(77.883449,-49.331901)">
    <g id="g15268">
      <path style="fill:#a3d1e4;fill-opacity:1;fill-rule:evenodd;stroke:none;stroke-width:0.15917701px;stroke-linecap:butt;stroke-linejoin:miter;stroke-opacity:1" d="m -27.954574,66.266083 c -2.866599,0.0331 -5.732198,0.22641 -8.574907,0.59978 -3.799782,0.500601 -7.564091,1.30476 -11.214492,2.47776 -1.836208,0.59153 -3.64332,1.27705 -5.39941,2.076541 -1.1838,0.54199 -2.27939,1.258489 -3.31769,2.039939 -2.3214,1.766841 -4.2831,3.978299 -5.88571,6.409341 -1.8174,2.75172 -3.185,5.787538 -4.15581,8.93531 -0.73059,2.3797 -1.22928,4.83071 -1.47799,7.307749 -0.32131,3.179721 -0.2414,6.411447 0.37161,9.552377 0.45709,2.34256 1.21388,4.63879 2.36649,6.73415 1.11961,2.05164 2.63001,3.90516 4.49209,5.32664 1.88921,1.45523 4.12261,2.43949 6.45091,2.93488 0.972,0.2078 1.94911,0.39091 2.92291,0.59011 3.10959,0.61865 6.219982,1.23426 9.341591,1.78966 3.187809,0.56724 6.387809,1.06988 9.60101,1.47043 3.3627,0.41901 6.741009,0.72649 10.12799,0.85199 2.09399,0.0731 4.190889,0.0809 6.284299,-0.0141 2.4774,-0.10078 4.94919,-0.36104 7.3888098,-0.80538 2.0111,-0.37609 3.9996,-0.88663 5.925402,-1.58016 2.19379,-0.79384 4.306699,-1.82782 6.235189,-3.14468 1.253101,-0.85462 2.428301,-1.82421 3.495199,-2.90283 1.692521,-1.69663 3.1087012,-3.6593 4.2459012,-5.76636 1.0092,-1.86029 1.7965,-3.83511 2.4242,-5.85444 0.679389,-2.51103 1.274921,-4.69703 1.56051,-7.030296 0.01191,-0.420632 -0.100201,-0.830821 -0.14491,-1.246722 -0.3464,-2.24749 -0.841089,-4.475678 -1.55081,-6.637539 -0.79719,-2.45547 -1.85319,-4.8304 -3.18788,-7.041851 -0.8469102,-1.40531 -1.8097002,-2.740689 -2.8704092,-3.99235 -1.076801,-1.266209 -2.257981,-2.4437 -3.52769,-3.516419 -2.200701,-1.87123 -4.661511,-3.42574 -7.256991,-4.6882 -2.37612,-1.15411 -4.86813,-2.06102 -7.4121198,-2.76728 -1.8488,-0.51414 -3.727291,-0.91843 -5.6198,-1.2344 -1.7883,-0.29563 -3.5891,-0.51606 -5.3965,-0.65382 -2.076,-0.16378 -4.158689,-0.23151 -6.240992,-0.21983 z" id="path4977-3-8" inkscape:connector-curvature="0" sodipodi:nodetypes="cccsccccccccccccccccccccccccccccccc" inkscape:export-filename="/home/issa/flowRoot7051-3-9-1-0-2.png" inkscape:export-xdpi="96" inkscape:export-ydpi="96"/>
      <ellipse style="opacity:0.2;vector-effect:none;fill:#aea79f;fill-opacity:1;stroke:none;stroke-width:6;stroke-linecap:butt;stroke-linejoin:miter;stroke-miterlimit:4;stroke-dasharray:none;stroke-dashoffset:0;stroke-opacity:1" id="path4996-1-5-9-0" cx="14.213922" cy="-129.89554" rx="15.715044" ry="3.2581098" inkscape:export-filename="/home/issa/flowRoot7051-3-9-1-0-2.png" inkscape:export-xdpi="96" inkscape:export-ydpi="96" transform="matrix(0.99850606,0.05464109,0.05464109,-0.99850606,0,0)"/>
      <path inkscape:connector-curvature="0" id="path1945-2-5-8" d="m -10.183173,96.098473 c -0.267308,0.133231 -0.462809,0.430741 -0.409019,0.735041 0.0249,0.428548 0.390311,0.77283 0.7982188,0.860251 0.690091,0.221919 1.452991,0.136149 2.116992,-0.133102 0.280299,-0.125888 0.568108,-0.3463 0.618699,-0.667149 -0.03,-0.13952 -0.20198,-0.15961 -0.29509,-0.245679 -0.65241,-0.409361 -1.390409,-0.764381 -2.1785,-0.741251 -0.22802,0.014 -0.45299,0.0779 -0.6513008,0.191889 z" style="fill:#ccdae0;fill-opacity:1;fill-rule:evenodd;stroke:none;stroke-width:0.26458299px;stroke-linecap:butt;stroke-linejoin:miter;stroke-opacity:1"/>
      <g transform="matrix(0.5945546,-0.17044471,0.17044471,0.5945546,-77.150863,40.40111)" style="stroke-width:1.29043996" id="g7839">
        <g style="stroke-width:18.39179993" transform="matrix(0.08579241,0.01917391,-0.01917391,0.08579241,31.852079,116.55382)" id="g11068-3-2">
          <g id="g3537" transform="matrix(-0.99297283,-0.11834256,-0.11834256,0.99297283,767.75383,45.58916)">
            <path style="fill:#474747;fill-opacity:1;fill-rule:evenodd;stroke:none;stroke-width:0.42778px;stroke-linecap:butt;stroke-linejoin:miter;stroke-opacity:1" d="m 87.567759,42.989818 -2.68998,16.871211 -3.321834,-1.108388 4.96717,-15.982526 z" id="path2070-33-9" inkscape:connector-curvature="0" transform="matrix(11.101536,-2.4811036,2.4811036,11.101536,-642.78911,-1214.8982)"/>
            <path inkscape:connector-curvature="0" id="path8208-8-2" d="m 175.14648,-353.04102 c 156.41797,-0.63606 312.83594,-1.27213 469.25391,-1.9082 1.15625,-118.02799 2.3125,-236.05599 3.46875,-354.08398 -150.12435,-8.9668 -300.2487,-17.9336 -450.37305,-26.90039 -7.44987,127.63086 -14.89974,255.26171 -22.34961,382.89257 z" style="fill:#ccdae0;fill-opacity:1;fill-rule:evenodd;stroke:none;stroke-width:4.86616993px;stroke-linecap:butt;stroke-linejoin:miter;stroke-opacity:1"/>
            <path inkscape:connector-curvature="0" id="path8278-4-7" d="m 166.11766,-545.35974 a 83.453811,82.76823 2.0892738 0 0 -63.56986,77.34774 83.453811,82.76823 2.0892738 0 0 57.76721,81.71252 z" style="opacity:1;fill:#3897c0;fill-opacity:1;stroke:none;stroke-width:73.56729889;stroke-linecap:butt;stroke-linejoin:round;stroke-miterlimit:4;stroke-dasharray:none;stroke-dashoffset:0;stroke-opacity:1"/>
            <path inkscape:connector-curvature="0" id="path8278-1-8-5" d="m 661.10281,-539.3169 c 1.14073,39.31649 1.5963,78.65132 1.40295,117.98377 -0.0555,12.6731 -0.14215,25.34607 -0.20989,38.01913 25.05179,-8.00527 46.62621,-27.3282 55.96719,-52.07972 10.12214,-27.13705 3.87347,-59.81748 -16.16263,-80.86565 -10.94643,-11.70579 -25.3703,-20.03076 -40.88941,-23.95345 -0.0361,0.29864 -0.0721,0.59728 -0.10821,0.89592 z" style="opacity:1;fill:#3897c0;fill-opacity:1;stroke:none;stroke-width:73.56729889;stroke-linecap:butt;stroke-linejoin:round;stroke-miterlimit:4;stroke-dasharray:none;stroke-dashoffset:0;stroke-opacity:1"/>
            <path inkscape:connector-curvature="0" id="path8331-8-4" d="m 424.37706,-774.14802 a 142.99676,94.685193 2.0892723 0 0 -121.76107,39.21326 l 240.50468,8.77381 a 142.99676,94.685193 2.0892723 0 0 -118.74361,-47.98707 z" style="opacity:1;fill:#6e96a8;fill-opacity:1;stroke:none;stroke-width:73.56729889;stroke-linecap:butt;stroke-linejoin:round;stroke-miterlimit:4;stroke-dasharray:none;stroke-dashoffset:0;stroke-opacity:1"/>
            <ellipse ry="27.293428" rx="30.187569" cy="-974.39923" cx="392.52631" id="path8216-0-2-8-8" style="opacity:1;fill:#3897c0;fill-opacity:1;stroke:none;stroke-width:73.56729889;stroke-linecap:butt;stroke-linejoin:round;stroke-miterlimit:4;stroke-dasharray:none;stroke-dashoffset:0;stroke-opacity:1" transform="rotate(2.0892722)"/>
          </g>
          <path inkscape:connector-curvature="0" style="opacity:1;fill:#333333;fill-opacity:1;stroke:none;stroke-width:73.56729889;stroke-linecap:butt;stroke-linejoin:round;stroke-miterlimit:4;stroke-dasharray:none;stroke-dashoffset:0;stroke-opacity:1" d="m 264.93555,-512.75977 c -11.97607,0.74822 -23.83654,7.77952 -28.8735,18.89642 -4.41697,9.50106 -2.86719,21.39489 3.83233,29.45374 8.26411,10.35475 22.71802,14.8108 35.50516,11.82676 10.74341,-2.33304 20.5977,-9.95753 24.19062,-20.54103 2.92326,-8.4412 1.54024,-18.21053 -3.7037,-25.4593 -6.87811,-9.80111 -19.14733,-14.92119 -30.95091,-14.17659 z" id="path8216-6-4" transform="rotate(2.0892722)"/>
          <path style="opacity:1;fill:#333333;fill-opacity:1;stroke:none;stroke-width:73.56729889;stroke-linecap:butt;stroke-linejoin:round;stroke-miterlimit:4;stroke-dasharray:none;stroke-dashoffset:0;stroke-opacity:1" d="m 524.25977,-513.62305 c -13.94973,0.676 -27.42093,10.55744 -30.98259,24.27593 -3.47606,13.15549 3.91364,28.21167 16.50352,33.43016 15.31687,7.00866 35.4492,1.52655 44.55479,-12.79395 6.07051,-9.42729 6.26418,-22.69383 -0.67598,-31.73512 -6.67526,-9.09009 -18.26852,-13.85409 -29.39974,-13.17702 z" id="path8216-0-0-7" inkscape:connector-curvature="0" transform="rotate(2.0892722)"/>
          <path style="fill:#6e96a8;fill-opacity:1;fill-rule:evenodd;stroke:none;stroke-width:4.86616993px;stroke-linecap:butt;stroke-linejoin:miter;stroke-opacity:1" d="m 524.04013,-339.68652 c -0.3873,15.74425 -0.77457,31.4885 -1.16186,47.23275 -76.47202,-8.67938 -152.94404,-17.35876 -229.41604,-26.03814 2.72044,-10.16359 5.44088,-20.3272 8.16132,-30.49078 74.13885,3.09872 148.27772,6.19744 222.41658,9.29617 z" id="path8353-9-1" inkscape:connector-curvature="0"/>
        </g>
        <path inkscape:connector-curvature="0" id="path7810" d="m 132.57643,87.187931 -37.137505,4.110641 c 0,0 2.83493,0 4.819365,1.417463 1.98445,1.41746 1.27572,4.677624 0.70873,5.811596 -0.56698,1.13397 -1.133965,4.535879 1.27572,5.102859 2.40969,0.56699 4.53588,-0.70873 7.93779,0 3.40191,0.70873 8.22128,6.09509 8.22128,6.09509 l 14.88336,-12.615414 z" style="fill:#dd4814;fill-opacity:1;fill-rule:evenodd;stroke:none;stroke-width:0.26458299px;stroke-linecap:butt;stroke-linejoin:miter;stroke-opacity:1" transform="matrix(-1.5542019,-0.44555284,-0.44555284,1.5542019,322.99563,21.20314)"/>
        <path sodipodi:nodetypes="cczcczc" inkscape:connector-curvature="0" id="path1928-92-5-6-3" d="m 78.060115,139.03992 c -1.720979,-1.9272 -3.28702,-4.02271 -4.396408,-6.3661 -0.349901,-0.72283 -0.610911,-1.48832 -0.761004,-2.2777 -0.361964,-1.76878 -0.349831,-3.59046 -0.21254,-5.38324 0.06887,-0.81843 0.179069,-1.63291 0.311177,-2.44339 0.125751,-0.0506 0.26657,0.003 0.398905,-0.0126 1.010755,0.0255 2.021526,0.0509 3.032281,0.0764 -1.126225,1.70668 -1.521391,3.83604 -1.252311,5.84946 0.217212,1.67298 0.839826,3.26887 1.63282,4.74879 0.734951,1.31617 1.581469,2.60753 2.753952,3.57694 0.370003,0.30699 0.765784,0.58561 1.19336,0.80685 -0.205888,0.20521 -0.491455,0.29781 -0.72549,0.46508 -0.614344,0.36548 -1.228681,0.73093 -1.843022,1.0964 -0.0436,-0.046 -0.08781,-0.0913 -0.131733,-0.13683 z" style="fill:#6e96a8;fill-opacity:1;fill-rule:evenodd;stroke:none;stroke-width:0.42778px;stroke-linecap:butt;stroke-linejoin:miter;stroke-opacity:1"/>
        <path sodipodi:nodetypes="cczcczc" inkscape:connector-curvature="0" id="path1928-92-5-6-3-5" d="m 64.333199,136.21005 c -1.72098,-1.9272 -3.28702,-4.02271 -4.39641,-6.3661 -0.3499,-0.72283 -0.61091,-1.48832 -0.76101,-2.2777 -0.36196,-1.76878 -0.34983,-3.59046 -0.21254,-5.38324 0.0689,-0.81843 0.17907,-1.63291 0.31118,-2.44339 0.12575,-0.0506 0.26657,0.003 0.39891,-0.0126 1.01075,0.0255 2.02152,0.0509 3.03228,0.0764 -1.12623,1.70668 -1.52139,3.83604 -1.25231,5.84946 0.21721,1.67298 0.83982,3.26887 1.63282,4.74879 0.73495,1.31617 1.58147,2.60753 2.75395,3.57694 0.37,0.30699 0.76578,0.58561 1.19336,0.80685 -0.20589,0.20521 -0.49146,0.29781 -0.72549,0.46508 -0.61435,0.36548 -1.22868,0.73093 -1.84302,1.0964 -0.0436,-0.046 -0.0878,-0.0913 -0.13174,-0.13683 z" style="fill:#6e96a8;fill-opacity:1;fill-rule:evenodd;stroke:none;stroke-width:0.42778px;stroke-linecap:butt;stroke-linejoin:miter;stroke-opacity:1"/>
        <path inkscape:connector-curvature="0" id="path8212-6-9" d="m 55.474609,119.14062 c 8.38086,2.63347 16.761719,5.26693 25.142579,7.9004 1.447916,-8.84506 2.895833,-17.69011 4.34375,-26.53516 -7.657553,-1.402344 -15.315105,-2.804688 -22.972657,-4.207032 -2.171224,7.613932 -4.342448,15.227862 -6.513672,22.841792 z" style="fill:#ccdae0;fill-opacity:1;fill-rule:evenodd;stroke:none;stroke-width:0.42778px;stroke-linecap:butt;stroke-linejoin:miter;stroke-opacity:1"/>
        <path inkscape:connector-curvature="0" id="path8214-3" d="m 75.100167,137.07066 c -1.57473,1.49094 -2.70699,3.41858 -3.35252,5.48199 -0.92131,2.95699 -0.70664,6.26761 0.65684,9.05536 0.49444,0.99936 1.11016,1.96816 1.97465,2.68787 0.60151,0.39368 1.36949,0.51849 2.06618,0.34439 4.36832,-4.10792 8.71499,-8.23876 13.07813,-12.35215 0.19906,-2.1572 -0.6918,-4.3678 -2.28746,-5.824 -1.46754,-1.36284 -3.49808,-2.12624 -5.50361,-1.98404 -1.99861,0.0915 -3.98166,0.70825 -5.64074,1.83495 -0.34503,0.23242 -0.67625,0.48406 -0.99144,0.75566 z" style="fill:#ccdae0;fill-opacity:1;fill-rule:evenodd;stroke:none;stroke-width:0.42778px;stroke-linecap:butt;stroke-linejoin:miter;stroke-opacity:1"/>
        <path inkscape:connector-curvature="0" id="path8214-4-6" d="m 58.364627,133.35349 c 1.89171,-1.33434 4.246263,-1.95816 6.550511,-1.84348 1.250552,0.0419 2.51213,0.36939 3.559078,1.07101 1.300628,0.84386 2.316928,2.17664 2.638508,3.70732 0.198063,0.90905 0.168304,1.88445 -0.179628,2.75367 -0.267513,0.51084 -0.806163,0.77627 -1.225797,1.14187 -4.02321,3.17302 -8.038155,6.35653 -12.069399,9.51936 -0.505507,0.15428 -1.047509,0.0137 -1.51682,-0.19119 -0.598851,-0.31922 -0.946786,-0.93428 -1.254504,-1.51272 -0.91114,-1.7059 -1.251896,-3.67731 -1.149959,-5.59777 0.160022,-2.82343 1.286459,-5.59063 3.175042,-7.69943 0.4486,-0.49281 0.933745,-0.95552 1.472925,-1.34862 z" style="fill:#ccdae0;fill-opacity:1;fill-rule:evenodd;stroke:none;stroke-width:0.42778px;stroke-linecap:butt;stroke-linejoin:miter;stroke-opacity:1"/>
        <path inkscape:connector-curvature="0" id="path8212-2-4-8" d="m 57.146484,112.82617 c 8.284506,2.36133 16.569011,4.72266 24.853516,7.08399 1.009766,-6.49675 2.019531,-12.99349 3.029297,-19.49024 -7.606771,-1.700519 -15.213542,-3.40104 -22.820313,-5.101561 -1.6875,5.835941 -3.375,11.671871 -5.0625,17.507811 z" style="fill:#333333;fill-opacity:1;fill-rule:evenodd;stroke:none;stroke-width:0.42778px;stroke-linecap:butt;stroke-linejoin:miter;stroke-opacity:1"/>
        <path inkscape:connector-curvature="0" id="path8402-3-0" d="m 73.019653,100.49451 c -0.777243,0.98909 -1.554485,1.97819 -2.33173,2.9673 -1.132688,-0.52953 -2.257692,-1.07525 -3.385772,-1.61447 0.220727,1.18087 0.545047,2.33846 0.838669,3.50241 -0.05092,0.17439 -0.265956,0.1868 -0.393675,0.28373 -0.987106,0.51329 -1.996656,0.98155 -2.999012,1.46391 0.02255,0.12015 0.184336,0.0964 0.265071,0.16174 1.055576,0.45877 2.130458,0.87072 3.200977,1.29283 -0.299954,1.22656 -0.604066,2.45213 -0.896365,3.68056 0.749655,-0.30294 1.424655,-0.75684 2.148947,-1.11206 0.421918,-0.22331 0.843835,-0.44662 1.26575,-0.66992 0.775819,0.92089 1.536468,1.8544 2.304247,2.78197 0.193013,-0.28091 0.153843,-0.64172 0.25688,-0.95521 0.179741,-0.87081 0.348567,-1.74385 0.509332,-2.61834 -0.566085,0.28736 -1.107595,0.69778 -1.764179,0.73456 -0.206793,-0.0307 -0.21465,-0.28223 -0.237252,-0.44586 -0.07875,-0.60764 -0.198701,-1.21804 -0.152948,-1.83332 0.2965,-0.23499 0.712094,-0.38538 0.840918,-0.77474 0.22545,-0.50764 -0.07646,-1.19196 -0.631494,-1.31589 -0.584473,-0.17134 -1.286698,0.25867 -1.339525,0.88031 -0.03607,0.36182 0.133752,0.70952 0.369078,0.97327 0.102155,0.20782 -0.106538,0.38737 -0.200699,0.55351 -0.32629,0.50833 -0.662756,1.0105 -1.024916,1.49412 -0.422597,-0.0544 -0.689981,-0.42355 -0.950129,-0.72143 -0.948017,-1.19785 -0.943818,-3.04223 0.0063,-4.23787 0.840284,-1.08445 2.309383,-1.68073 3.662613,-1.3853 1.214521,0.25494 2.284023,1.21393 2.567533,2.43678 0.260506,1.11313 -0.06199,2.32285 -0.77657,3.20494 -0.06142,0.10393 -0.185454,0.17351 -0.198351,0.30283 0.400165,0.11134 0.817931,0.0247 1.226064,0.056 0.774635,0.003 1.549244,-8.9e-4 2.323834,-0.01 -0.07097,-0.27397 -0.312571,-0.45169 -0.473983,-0.67165 -0.600836,-0.70701 -1.217849,-1.39997 -1.832681,-2.09477 0.793921,-0.96214 1.610077,-1.90563 2.404672,-2.86722 -0.776346,-0.0558 -1.551753,0.0489 -2.327882,0.0604 -0.489987,0.0213 -0.979975,0.0427 -1.469959,0.064 -0.259696,-1.19002 -0.515176,-2.38102 -0.793847,-3.56679 z" style="fill:#3897c0;fill-opacity:1;stroke-width:1.61680996"/>
        <g transform="rotate(12.445041,88.724975,95.515513)" id="g12187-0-0" style="stroke-width:1.29043996">
          <path sodipodi:nodetypes="cczcczc" inkscape:connector-curvature="0" id="path1928-92-5" d="m 43.941406,94.777344 c -0.272918,0.185875 -0.504841,0.423088 -0.76174,0.629263 -0.503467,0.422436 -1.003932,0.848443 -1.503885,1.275034 0.305582,0.557307 0.627951,1.105287 0.96479,1.644254 0.353003,0.569637 0.719735,1.130995 1.111612,1.674765 0.297609,0.4129 0.602868,0.82079 0.926125,1.21403 0.476686,0.57968 0.968607,1.14816 1.504071,1.67472 0.469999,0.47672 0.976026,0.92109 1.534862,1.29143 0.561362,0.37951 1.163473,0.69491 1.777192,0.98038 0.288479,0.13372 0.58025,0.25986 0.874879,0.3794 0.517541,0.21413 1.03964,0.41739 1.566742,0.60678 0.664057,0.23217 1.327144,0.46878 2.002266,0.66722 0.58663,0.16947 1.174741,0.33528 1.771667,0.46503 0.308847,0.0701 0.620428,0.12735 0.930638,0.19105 0.09653,-0.10127 0.139221,-0.237 0.208984,-0.35547 0.309896,-0.95638 0.619792,-1.91276 0.929688,-2.86914 -0.392843,0.12062 -0.798713,0.20257 -1.209796,0.2219 -0.38117,0.0232 -0.764095,0.006 -1.143831,-0.0305 -0.349771,-0.0416 -0.697538,-0.0998 -1.042114,-0.17284 -0.395864,-0.0838 -0.786559,-0.18995 -1.17207,-0.31273 -0.564397,-0.17318 -1.115953,-0.38636 -1.657476,-0.62093 -0.370349,-0.15958 -0.731825,-0.33868 -1.085374,-0.53255 -0.753306,-0.40805 -1.466704,-0.89157 -2.115979,-1.45105 -0.420795,-0.35811 -0.820223,-0.74079 -1.2062,-1.13599 -0.399988,-0.403409 -0.767279,-0.837627 -1.122638,-1.280388 -0.442043,-0.55635 -0.853714,-1.139631 -1.189316,-1.767011 -0.294661,-0.542166 -0.532953,-1.1162 -0.697415,-1.711185 -0.05584,-0.209896 -0.108814,-0.42119 -0.139041,-0.63639 -0.0047,-0.02677 -0.02504,-0.05895 -0.05664,-0.03906 z" style="fill:#6e96a8;fill-opacity:1;fill-rule:evenodd;stroke:none;stroke-width:0.42778px;stroke-linecap:butt;stroke-linejoin:miter;stroke-opacity:1"/>
          <path inkscape:connector-curvature="0" id="path8265-8-4-5-1" d="m 61.746094,102.12891 c -0.973622,0.30734 -1.952142,0.60025 -2.916016,0.9375 -0.486892,0.20431 -0.956748,0.45512 -1.376362,0.77738 -0.306617,0.23282 -0.579456,0.51032 -0.80376,0.82346 -0.234369,0.32727 -0.416553,0.69057 -0.545644,1.07167 -0.07741,0.22631 -0.141176,0.45787 -0.188386,0.69226 -0.08843,0.46754 -0.114332,0.95163 -0.03507,1.42234 0.08975,0.42034 0.233826,0.83256 0.453685,1.20312 0.28163,0.44623 0.698415,0.78375 1.1185,1.09332 0.870584,0.60796 1.711228,1.25772 2.584693,1.8616 0.295737,0.20117 0.596969,0.3943 0.903669,0.57828 0.08823,0.0645 0.202703,-0.0206 0.188442,-0.12266 -0.08296,-0.53454 -0.110341,-1.07981 -0.06892,-1.6198 0.05618,-0.64064 0.15574,-1.27643 0.218516,-1.9164 0.150683,-1.35455 0.237961,-2.71494 0.345884,-4.0733 0.06695,-0.86857 0.133897,-1.73715 0.200845,-2.60573 -0.0047,-0.0476 -0.0068,-0.14222 -0.08008,-0.12304 z" style="fill:#333333;fill-opacity:1;fill-rule:evenodd;stroke:none;stroke-width:0.42778px;stroke-linecap:butt;stroke-linejoin:miter;stroke-opacity:1"/>
          <path style="opacity:1;fill:#ccdae0;fill-opacity:1;stroke:none;stroke-width:6.46721983;stroke-linecap:butt;stroke-linejoin:round;stroke-miterlimit:4;stroke-dasharray:none;stroke-dashoffset:0;stroke-opacity:1" d="m 39.570851,89.328788 c 1.386155,0.0703 2.762212,0.7203 3.605209,1.83884 0.778337,0.98635 0.950881,2.39369 0.47651,3.55166 -0.233137,0.58435 -0.631046,1.09449 -1.122595,1.48476 -1.596105,1.34766 -4.036052,1.51739 -5.837428,0.48358 -1.045851,-0.58148 -1.881564,-1.61213 -2.06578,-2.81292 -0.180495,-1.18743 0.280023,-2.44891 1.184016,-3.2403 0.995499,-0.9411 2.407156,-1.36818 3.760068,-1.30562 z" id="path8355-4-4-7-4-1" inkscape:connector-curvature="0"/>
        </g>
        <g transform="matrix(-0.94236359,-0.33459058,-0.33459058,0.94236359,180.17409,26.942997)" id="g12187-0-0-3" style="stroke-width:1.29043996">
          <path sodipodi:nodetypes="cczcczc" inkscape:connector-curvature="0" id="path1928-92-5-6" d="m 60.689453,108.75781 c -0.09882,-0.004 -0.198639,-0.004 -0.298198,-0.002 -0.279772,0.0116 -0.559159,0.0352 -0.838521,0.0551 -0.337108,0.0351 -0.670974,0.0991 -0.999099,0.18347 -0.456827,0.11978 -0.90884,0.26011 -1.345379,0.44121 -0.440167,0.17793 -0.869008,0.38249 -1.294804,0.59212 -0.740301,0.37341 -1.451784,0.80017 -2.169311,1.21484 -0.72914,0.43102 -1.467536,0.84732 -2.178325,1.30849 -0.656648,0.4364 -1.271366,0.93445 -1.843201,1.4769 -0.554821,0.52036 -1.066077,1.08535 -1.550339,1.67147 -0.4691,0.56682 -0.915203,1.15288 -1.334092,1.7578 -0.407879,0.59231 -0.79039,1.20143 -1.172168,1.81073 0.404814,0.38131 0.852009,0.71345 1.283303,1.06353 0.459602,0.36684 0.919204,0.73369 1.378806,1.10053 0.103357,-0.56314 0.194009,-1.13415 0.403103,-1.67014 0.198343,-0.54017 0.439292,-1.06594 0.737768,-1.55844 0.185716,-0.31062 0.397314,-0.60488 0.614449,-0.89409 0.177235,-0.23655 0.372143,-0.45897 0.578664,-0.6703 0.313017,-0.3279 0.639959,-0.64302 0.983326,-0.93903 0.417121,-0.34893 0.850283,-0.67802 1.292815,-0.99396 1.023387,-0.73579 2.056417,-1.45814 3.093772,-2.17406 0.438791,-0.28497 0.875992,-0.57334 1.330212,-0.83337 0.341722,-0.19243 0.693931,-0.36692 1.05756,-0.51401 0.563189,-0.22122 1.169944,-0.34861 1.776695,-0.32057 0.300575,0.0149 0.599134,0.0645 0.887638,0.15034 0.244437,0.0753 0.477084,0.18338 0.708842,0.29068 0.03335,0.10682 0.226591,0.0367 0.143525,-0.0652 -0.129143,-0.32507 -0.25359,-0.65197 -0.392845,-0.97293 -0.216149,-0.493 -0.440802,-0.98227 -0.660837,-1.47356 -0.04495,-0.0593 -0.13018,-0.0371 -0.193359,-0.0352 z" style="fill:#6e96a8;fill-opacity:1;fill-rule:evenodd;stroke:none;stroke-width:0.42778px;stroke-linecap:butt;stroke-linejoin:miter;stroke-opacity:1"/>
          <path inkscape:connector-curvature="0" id="path8265-8-4-5-1-7" d="m 63.810442,102.10478 c -1.646099,0.57058 -3.281746,1.23855 -4.711199,2.25054 -1.081506,0.72826 -1.912536,1.86537 -2.155428,3.1578 -0.125993,0.7333 -0.02133,1.5018 0.297758,2.17401 0.637778,1.41881 1.94352,2.49457 3.428014,2.93106 0.205731,0.0661 1.111062,0.37134 1.323086,0.41231 0.830717,-3.39036 1.278764,-7.03975 2.235003,-10.43955 0.06521,-0.23362 0.130428,-0.46725 0.195642,-0.70087 -0.204292,0.0716 -0.408583,0.14312 -0.612872,0.21466 z" style="fill:#333333;fill-opacity:1;fill-rule:evenodd;stroke:none;stroke-width:0.42778px;stroke-linecap:butt;stroke-linejoin:miter;stroke-opacity:1" sodipodi:nodetypes="scccccccss"/>
          <path style="opacity:1;fill:#ccdae0;fill-opacity:1;stroke:none;stroke-width:6.46721983;stroke-linecap:butt;stroke-linejoin:round;stroke-miterlimit:4;stroke-dasharray:none;stroke-dashoffset:0;stroke-opacity:1" d="m 45.961875,119.53491 c 1.386155,0.0703 2.762212,0.7203 3.605209,1.83884 0.778337,0.98635 0.950881,2.39369 0.47651,3.55166 -0.233137,0.58435 -0.631046,1.09449 -1.122595,1.48476 -1.596105,1.34766 -4.036052,1.51739 -5.837428,0.48358 -1.045851,-0.58148 -1.881564,-1.61213 -2.06578,-2.81292 -0.180495,-1.18743 0.280023,-2.44891 1.184016,-3.2403 0.995499,-0.9411 2.407156,-1.36818 3.760068,-1.30562 z" id="path8355-4-4-7-4-1-5" inkscape:connector-curvature="0"/>
        </g>
      </g>
      <path style="opacity:1;vector-effect:none;fill:#ffffff;fill-opacity:1;stroke:none;stroke-width:0.37774903px;stroke-linecap:butt;stroke-linejoin:miter;stroke-miterlimit:4;stroke-dasharray:none;stroke-dashoffset:0;stroke-opacity:1" d="m -61.611569,75.695983 a 7.2999314,7.2999314 0 0 0 -5.94537,3.07371 7.1581851,6.6620731 1.0949478e-6 0 0 -3.40962,-0.80563 7.1581851,6.6620731 1.0949478e-6 0 0 -6.91689,4.961451 h 28.49698 a 5.0319914,5.0319914 0 0 0 -4.28709,-2.409672 5.0319914,5.0319914 0 0 0 -1.04127,0.114721 7.2999314,7.2999314 0 0 0 -6.89674,-4.93458 z" id="path7876" inkscape:connector-curvature="0"/>
      <path inkscape:connector-curvature="0" style="opacity:1;vector-effect:none;fill:#ffffff;fill-opacity:1;stroke:none;stroke-width:0.37774903px;stroke-linecap:butt;stroke-linejoin:miter;stroke-miterlimit:4;stroke-dasharray:none;stroke-dashoffset:0;stroke-opacity:1" d="m -56.739899,91.611703 a 7.2290591,6.8746934 7.6380911e-7 0 0 -7.22902,6.87451 7.2290591,6.8746934 7.6380911e-7 0 0 0.0114,0.212402 h 20.61269 a 5.4572302,5.4572302 0 0 0 -5.10304,-3.543461 5.4572302,5.4572302 0 0 0 -1.802482,0.312639 7.2290591,6.8746934 7.6380911e-7 0 0 -6.489528,-3.85609 z" id="path7897"/>
      <path style="fill:#dd4814;fill-opacity:1;fill-rule:evenodd;stroke:none;stroke-width:0.26458201px;stroke-linecap:butt;stroke-linejoin:miter;stroke-opacity:1" d="m -22.11723,85.291164 7.869478,-0.39593 2.554025,0.921858 -9.869908,0.883791 z" id="path3506" sodipodi:nodetypes="ccccc" inkscape:connector-curvature="0"/>
    </g>
  </g>
</svg>