<?xml version="1.0" encoding="UTF-8" standalone="no"?>
<svg
   xmlns:dc="http://purl.org/dc/elements/1.1/"
   xmlns:cc="http://creativecommons.org/ns#"
   xmlns:rdf="http://www.w3.org/1999/02/22-rdf-syntax-ns#"
   xmlns:svg="http://www.w3.org/2000/svg"
   xmlns="http://www.w3.org/2000/svg"
   id="svg5544"
   version="1.1"
   viewBox="0 0 69.306091 24.613647"
   height="24.613647mm"
   width="69.306091mm">
  <defs
     id="defs5538" />
  <metadata
     id="metadata5541">
    <rdf:RDF>
      <cc:Work
         rdf:about="">
        <dc:format>image/svg+xml</dc:format>
        <dc:type
           rdf:resource="http://purl.org/dc/dcmitype/StillImage" />
        <dc:title></dc:title>
      </cc:Work>
    </rdf:RDF>
  </metadata>
  <g
     transform="translate(65.696113,-99.755748)"
     id="layer1">
    <path
       id="path10007"
       d="m -58.687065,123.62012 c 0.01335,-0.5474 0.05068,-2.62562 0.09667,-5.38122 0.01259,-0.75708 0.01938,-1.38011 0.01493,-1.38451 -0.0045,-0.004 -0.904059,-0.16743 -1.999237,-0.36229 -1.757799,-0.31276 -3.898731,-0.69752 -4.811849,-0.86478 l -0.309562,-0.0567 0.122789,-0.11226 c 0.270818,-0.24759 1.285617,-1.04951 2.696103,-2.13055 1.711024,-1.31137 2.826297,-2.19044 2.846801,-2.24387 0.01704,-0.0444 -0.439177,-0.90948 -1.908648,-3.61912 -1.26512,-2.33283 -1.509146,-2.79098 -1.489991,-2.79743 0.02662,-0.009 0.703366,0.1563 4.067626,0.99341 1.648335,0.41014 2.998517,0.74336 3.00041,0.74049 0.09114,-0.1382 0.234153,-0.46466 1.265949,-2.88982 1.15635,-2.71791 1.588264,-3.712904 1.629951,-3.754854 0.02949,-0.02964 0.371202,0.691714 1.597026,3.370924 0.563059,1.23066 1.134346,2.44328 1.334528,2.83272 l 0.149348,0.29054 0.07812,-0.005 c 0.153768,-0.009 1.273891,-0.30211 3.366789,-0.88082 2.31589,-0.64038 3.53762,-0.97193 3.58153,-0.97193 0.011,0 -0.70932,1.45223 -1.60068,3.22718 -0.89136,1.77494 -1.61764,3.24289 -1.61393,3.2621 0.0101,0.053 0.65942,0.5349 2.90939,2.15952 2.56392,1.85129 2.95813,2.14525 2.90578,2.16679 -0.0747,0.0307 -3.84893,0.82323 -6.0057,1.26106 -1.031375,0.20937 -0.933856,0.19321 -0.933856,0.15481 0,-0.0177 0.125013,-0.27663 0.277808,-0.57536 0.322408,-0.63033 0.417108,-0.8458 0.553358,-1.2591 0.23962,-0.72676 0.32012,-1.46006 0.28708,-2.61481 -0.0142,-0.49681 -0.0425,-0.69854 -0.16465,-1.17252 -0.32894,-1.27686 -0.913094,-2.31689 -1.795406,-3.19648 -1.162065,-1.1585 -2.492581,-1.80102 -4.020494,-1.94153 -0.388721,-0.0357 -1.292811,-0.0134 -1.658645,0.041 -1.3378,0.19893 -2.422668,0.71963 -3.450627,1.65619 -1.202107,1.09522 -1.933028,2.47406 -2.192526,4.13604 -0.0411,0.26301 -0.04705,0.38063 -0.04759,0.93386 -4.5e-4,0.49628 0.0075,0.68897 0.03612,0.89236 0.111929,0.79088 0.315912,1.46872 0.648121,2.15371 0.372839,0.76876 0.758625,1.31373 1.34804,1.90427 0.554892,0.55595 1.144571,0.97496 1.823708,1.29588 0.428257,0.20238 0.614027,0.2491 0.681745,0.17149 0.08988,-0.103 0.532541,-1.22126 1.016623,-2.56812 0.325852,-0.90664 0.576822,-1.67424 0.576822,-1.76426 0,-0.0475 -0.12429,-0.15464 -0.256845,-0.22149 -0.0699,-0.0353 -0.17844,-0.10377 -0.241218,-0.15229 -0.255133,-0.19713 -0.597325,-0.60583 -0.725846,-0.86689 -0.137162,-0.27862 -0.189444,-0.82163 -0.114184,-1.18599 0.158292,-0.76637 0.700591,-1.35221 1.435032,-1.55028 0.22135,-0.0597 0.656891,-0.0639 0.868053,-0.008 0.568805,0.14959 1.04423,0.52911 1.317454,1.05172 0.230987,0.44184 0.245616,1.15619 0.03439,1.67916 -0.07567,0.18733 -0.235534,0.40842 -0.459273,0.63517 -0.188138,0.19066 -0.301728,0.27672 -0.611525,0.4633 -0.131205,0.079 -0.154604,0.12728 -0.124433,0.25663 0.115533,0.49526 1.112673,3.24297 1.446902,3.98709 0.109232,0.24317 0.139206,0.28096 0.222888,0.28096 0.09589,0 0.325391,-0.0846 0.622398,-0.22951 0.835928,-0.40777 1.630939,-1.03998 2.313906,-1.84009 l 0.197143,-0.23096 0.01486,0.41876 c 0.0081,0.23031 0.05701,1.30125 0.108587,2.37986 0.0515,1.07861 0.107622,2.32065 0.124615,2.76008 0.01697,0.43944 0.03514,0.90637 0.04042,1.03763 0.01014,0.25444 -0.0053,0.58107 -0.02775,0.58107 -0.0075,0 -0.35861,-0.28612 -0.780442,-0.63581 -3.078658,-2.55212 -4.320847,-3.571 -4.72544,-3.87591 l -0.07774,-0.0586 -0.150532,0.1214 c -0.43846,0.35361 -3.705028,3.18985 -5.027376,4.36509 -0.148375,0.13187 -0.287286,0.25349 -0.308681,0.27026 -0.03793,0.0297 -0.03853,0.016 -0.02519,-0.52932 z"
       style="fill:#ffffff;stroke-width:0.02075248" />
    <g
       id="flowRoot7051-4-2-2-2"
       style="font-style:normal;font-variant:normal;font-weight:300;font-stretch:normal;font-size:29.35066795px;line-height:24px;font-family:'Frutiger LT Arabic';-inkscape-font-specification:'Frutiger LT Arabic, Light';font-variant-ligatures:normal;font-variant-caps:normal;font-variant-numeric:normal;font-feature-settings:normal;text-align:start;letter-spacing:0px;word-spacing:0px;writing-mode:lr-tb;text-anchor:start;fill:#ffffff;fill-opacity:1;stroke:none;stroke-width:1px;stroke-linecap:butt;stroke-linejoin:miter;stroke-opacity:1"
       transform="matrix(0.39735858,0,0,0.39735858,-98.006887,-76.209852)"
       aria-label="JOSA">
      <path
         id="path6113"
         style="font-style:normal;font-variant:normal;font-weight:normal;font-stretch:normal;line-height:26.04584312px;font-family:Aleo;-inkscape-font-specification:Aleo;fill:#ffffff;fill-opacity:1"
         d="m 154.96533,463.6936 c -0.46961,0 -0.88052,-0.0587 -1.17402,-0.14675 -0.29351,-0.0881 -0.52832,-0.1174 -0.70442,-0.1174 -0.1761,0 -0.35221,0.0587 -0.46961,0.1761 -0.1174,0.11741 -0.23481,0.82182 -0.32286,2.05455 1.02727,0.29351 2.05455,0.41091 3.05247,0.41091 0.99792,0 1.90779,-0.17611 2.72961,-0.52831 2.52416,-1.05663 3.81559,-3.37533 3.81559,-6.98546 v -11.62287 l 1.64364,-0.32285 c 0.2935,-0.0587 0.46961,-0.26416 0.46961,-0.55767 v -1.23272 h -7.33767 v 1.23272 c 0,0.29351 0.1174,0.49896 0.41091,0.55767 0.1761,0.0587 0.85117,0.1761 1.96649,0.3522 v 11.68157 c 0,3.37533 -1.37948,5.07767 -4.07974,5.07767 z" />
      <path
         id="path6115"
         style="font-style:normal;font-variant:normal;font-weight:normal;font-stretch:normal;line-height:26.04584312px;font-family:Aleo;-inkscape-font-specification:Aleo;fill:#ffffff;fill-opacity:1"
         d="m 185.85416,455.32866 c 0,-1.58493 -0.23481,-3.02311 -0.73377,-4.34389 -0.49896,-1.32078 -1.20338,-2.46546 -2.11325,-3.40468 -0.90987,-0.93922 -1.99584,-1.67299 -3.28727,-2.2013 -1.29143,-0.52831 -2.70026,-0.79247 -4.2265,-0.79247 -1.52623,0 -2.93506,0.26416 -4.22649,0.79247 -1.29143,0.52831 -2.37741,1.29143 -3.28728,2.23065 -0.90987,0.93922 -1.61429,2.0839 -2.11325,3.40468 -0.49896,1.32078 -0.76311,2.75896 -0.76311,4.34389 0,1.58494 0.26415,3.02312 0.76311,4.3439 0.49896,1.32078 1.20338,2.46546 2.11325,3.40468 0.90987,0.93922 1.99585,1.67299 3.28728,2.2013 1.29143,0.52831 2.70026,0.82182 4.22649,0.82182 1.52624,0 2.93507,-0.29351 4.2265,-0.82182 1.29143,-0.52831 2.34805,-1.26208 3.25792,-2.2013 0.90987,-0.93922 1.61429,-2.0839 2.11325,-3.40468 0.49896,-1.32078 0.73377,-2.72961 0.73377,-4.31454 z m -2.93507,0.0587 c 0,1.29143 -0.1761,2.4361 -0.52831,3.46337 -0.35221,1.02728 -0.85117,1.87845 -1.49688,2.58286 -0.64572,0.70442 -1.40884,1.26208 -2.34806,1.64364 -0.93922,0.38156 -1.96649,0.58701 -3.08182,0.58701 -1.11532,0 -2.1426,-0.20545 -3.08182,-0.58701 -0.93922,-0.38156 -1.70234,-0.93922 -2.34805,-1.64364 -0.64572,-0.70441 -1.17403,-1.55558 -1.52624,-2.58286 -0.3522,-1.02727 -0.52831,-2.17194 -0.52831,-3.46337 0,-1.29143 0.17611,-2.46546 0.52831,-3.49273 0.35221,-1.02728 0.88052,-1.9078 1.52624,-2.61221 0.64571,-0.70442 1.40883,-1.23273 2.34805,-1.61429 0.93922,-0.38156 1.93715,-0.55766 3.05247,-0.55766 1.11533,0 2.17195,0.1761 3.11117,0.55766 0.93922,0.38156 1.70234,0.90987 2.34806,1.61429 0.64571,0.70441 1.11532,1.58493 1.46753,2.61221 0.35221,1.02727 0.52831,2.2013 0.52831,3.49273 z" />
      <path
         id="path6117"
         style="font-style:normal;font-variant:normal;font-weight:normal;font-stretch:normal;line-height:26.04584312px;font-family:Aleo;-inkscape-font-specification:Aleo;fill:#ffffff;fill-opacity:1"
         d="m 197.62103,454.7123 c -0.70442,-0.29351 -1.93715,-0.73377 -3.69819,-1.32078 -0.61636,-0.20545 -1.17403,-0.44026 -1.64364,-0.73377 -1.05662,-0.58701 -1.58493,-1.40883 -1.58493,-2.4361 0,-0.93922 0.35221,-1.76104 0.99792,-2.34806 0.70442,-0.64571 1.70234,-0.93922 2.93507,-0.93922 0.99792,0 2.17195,0.20546 3.46338,0.55767 0.1174,1.70233 0.20545,2.5535 0.20545,2.61221 0.0587,0.3522 0.26416,0.49896 0.61637,0.49896 h 1.40883 v -4.84286 c -1.99585,-0.82182 -3.96234,-1.17403 -5.89949,-1.17403 -1.93714,0 -3.49273,0.58701 -4.6961,1.76104 -1.11533,1.11533 -1.67299,2.40675 -1.67299,3.99169 0,1.67299 0.49896,2.99377 1.55558,3.93299 0.46961,0.41091 1.02728,0.79247 1.61429,1.05662 0.58701,0.26416 1.81974,0.64572 3.69818,1.23273 0.58702,0.17611 1.11533,0.41091 1.58494,0.70442 1.05662,0.58701 1.58494,1.46753 1.58494,2.58286 0,1.17402 -0.35221,2.08389 -1.11533,2.78831 -0.35221,0.35221 -0.82182,0.61636 -1.35013,0.79247 -0.52831,0.1761 -1.23273,0.29351 -2.17195,0.29351 -0.93922,0 -2.11325,-0.29351 -3.58078,-0.82182 0,0 -0.0293,-0.46961 -0.088,-1.29143 -0.0587,-0.82182 -0.11741,-1.32078 -0.14676,-1.43819 -0.0587,-0.3522 -0.2348,-0.49896 -0.58701,-0.49896 h -1.43818 v 5.28312 l 0.85117,0.29351 c 0.58701,0.1761 1.35013,0.38156 2.34805,0.55766 0.99792,0.17611 1.9665,0.26416 2.87637,0.26416 2.17195,0 3.93299,-0.61637 5.22442,-1.90779 1.23272,-1.23273 1.81974,-2.78832 1.81974,-4.72546 0,-2.2013 -1.05663,-3.78624 -3.16988,-4.72546 z" />
      <path
         id="path6119"
         style="font-style:normal;font-variant:normal;font-weight:normal;font-stretch:normal;line-height:26.04584312px;font-family:Aleo;-inkscape-font-specification:Aleo;fill:#ffffff;fill-opacity:1"
         d="m 223.00522,464.19257 -1.17402,-0.35221 -7.60183,-19.01923 h -2.87636 l -7.63117,19.01923 -1.17403,0.35221 c -0.23481,0.0587 -0.38156,0.20545 -0.38156,0.46961 v 1.17402 h 6.01689 v -1.17402 c 0,-0.26416 -0.11741,-0.41091 -0.38156,-0.46961 l -1.20338,-0.35221 1.64364,-4.2265 h 9.06936 l 1.64363,4.2265 -1.20337,0.35221 c -0.26416,0.0587 -0.41091,0.20545 -0.41091,0.46961 v 1.17402 h 6.04623 v -1.17402 c 0,-0.26416 -0.14675,-0.41091 -0.38156,-0.46961 z m -13.97091,-6.63325 3.14052,-8.07144 c 0.1761,-0.46961 0.35221,-1.11532 0.58701,-1.99584 0.20546,0.79246 0.41091,1.43818 0.64572,1.96649 l 3.11117,8.10079 z" />
    </g>
    <g
       id="flowRoot7051-9-0-8-0-4"
       style="font-style:normal;font-variant:normal;font-weight:300;font-stretch:normal;font-size:29.35066795px;line-height:24px;font-family:'Frutiger LT Arabic';-inkscape-font-specification:'Frutiger LT Arabic, Light';font-variant-ligatures:normal;font-variant-caps:normal;font-variant-numeric:normal;font-feature-settings:normal;text-align:start;letter-spacing:0px;word-spacing:0px;writing-mode:lr-tb;text-anchor:start;fill:#3a3a42;fill-opacity:1;stroke:none;stroke-width:1px;stroke-linecap:butt;stroke-linejoin:miter;stroke-opacity:1"
       transform="matrix(0.29079547,0,0,0.29079547,-81.580336,-18.146402)"
       aria-label="MEMBERS
HUB">
      <path
         id="path6122"
         style="font-style:normal;font-variant:normal;font-weight:600;font-stretch:normal;font-family:Lato;-inkscape-font-specification:'Lato Semi-Bold';text-align:start;text-anchor:start;fill:#ffffff;fill-opacity:1"
         d="m 164.51897,456.53639 q 0.20546,0.42559 0.41091,0.88052 0.20546,0.44026 0.36689,0.90987 0.1761,-0.46961 0.36688,-0.92454 0.20546,-0.46961 0.42559,-0.8952 l 6.67727,-12.2539 q 0.20546,-0.41091 0.45494,-0.48429 0.24948,-0.0881 0.70441,-0.0881 h 2.56819 v 21.13248 h -3.02312 v -14.48455 q 0,-0.35221 0.0147,-0.76312 0.0293,-0.41091 0.0587,-0.83649 l -6.78,12.53273 q -0.39623,0.77779 -1.21805,0.77779 h -0.48429 q -0.83649,0 -1.21805,-0.77779 l -6.91208,-12.57676 q 0.044,0.44026 0.0734,0.86584 0.0293,0.41091 0.0293,0.7778 v 14.48455 h -3.02311 V 443.6808 h 2.56818 q 0.45493,0 0.70441,0.0881 0.24949,0.0734 0.45494,0.48429 l 6.78,12.28325 z" />
      <path
         id="path6124"
         style="font-style:normal;font-variant:normal;font-weight:600;font-stretch:normal;font-family:Lato;-inkscape-font-specification:'Lato Semi-Bold';text-align:start;text-anchor:start;fill:#ffffff;fill-opacity:1"
         d="m 194.70614,443.6808 v 2.77364 h -9.72975 v 6.36909 h 7.77793 v 2.68559 h -7.77793 v 6.53052 h 9.74442 l -0.0147,2.77364 H 181.52769 V 443.6808 Z" />
      <path
         id="path6126"
         style="font-style:normal;font-variant:normal;font-weight:600;font-stretch:normal;font-family:Lato;-inkscape-font-specification:'Lato Semi-Bold';text-align:start;text-anchor:start;fill:#ffffff;fill-opacity:1"
         d="m 208.94625,456.53639 q 0.20546,0.42559 0.41091,0.88052 0.20546,0.44026 0.36689,0.90987 0.1761,-0.46961 0.36688,-0.92454 0.20546,-0.46961 0.42559,-0.8952 l 6.67727,-12.2539 q 0.20546,-0.41091 0.45494,-0.48429 0.24948,-0.0881 0.70441,-0.0881 h 2.56819 v 21.13248 h -3.02312 v -14.48455 q 0,-0.35221 0.0147,-0.76312 0.0293,-0.41091 0.0587,-0.83649 l -6.78001,12.53273 q -0.39623,0.77779 -1.21805,0.77779 h -0.48429 q -0.83649,0 -1.21805,-0.77779 l -6.91208,-12.57676 q 0.044,0.44026 0.0734,0.86584 0.0293,0.41091 0.0293,0.7778 v 14.48455 h -3.02311 V 443.6808 h 2.56818 q 0.45493,0 0.70442,0.0881 0.24948,0.0734 0.45493,0.48429 l 6.78,12.28325 z" />
      <path
         id="path6128"
         style="font-style:normal;font-variant:normal;font-weight:600;font-stretch:normal;font-family:Lato;-inkscape-font-specification:'Lato Semi-Bold';text-align:start;text-anchor:start;fill:#ffffff;fill-opacity:1"
         d="M 225.95496,464.81328 V 443.6808 h 7.02949 q 2.02519,0 3.46338,0.39623 1.43818,0.38156 2.36273,1.10066 0.92454,0.71909 1.35013,1.76104 0.44026,1.02727 0.44026,2.3187 0,0.74844 -0.23481,1.45286 -0.22013,0.70441 -0.70442,1.3061 -0.46961,0.60169 -1.1887,1.10065 -0.71909,0.48429 -1.70234,0.80714 2.24533,0.46961 3.36066,1.65832 1.13,1.1887 1.13,3.09649 0,1.35013 -0.51364,2.48013 -0.49896,1.11533 -1.46753,1.93715 -0.9539,0.80714 -2.36273,1.26208 -1.40884,0.45493 -3.2139,0.45493 z m 3.43403,-9.42156 v 6.70663 h 4.25585 q 1.15935,0 1.95182,-0.26416 0.80714,-0.27883 1.3061,-0.74844 0.51364,-0.46961 0.73377,-1.10065 0.2348,-0.64572 0.2348,-1.37948 0,-1.49689 -1.02727,-2.34806 -1.0126,-0.86584 -3.2139,-0.86584 z m 0,-2.42143 h 3.43403 q 2.2013,0 3.28727,-0.85117 1.08598,-0.85117 1.08598,-2.45078 0,-1.74637 -1.02728,-2.52416 -1.01259,-0.77779 -3.18454,-0.77779 h -3.59546 z" />
      <path
         id="path6130"
         style="font-style:normal;font-variant:normal;font-weight:600;font-stretch:normal;font-family:Lato;-inkscape-font-specification:'Lato Semi-Bold';text-align:start;text-anchor:start;fill:#ffffff;fill-opacity:1"
         d="m 258.28014,443.6808 v 2.77364 h -9.72975 v 6.36909 h 7.77793 v 2.68559 h -7.77793 v 6.53052 h 9.74443 l -0.0147,2.77364 H 245.10169 V 443.6808 Z" />
      <path
         id="path6132"
         style="font-style:normal;font-variant:normal;font-weight:600;font-stretch:normal;font-family:Lato;-inkscape-font-specification:'Lato Semi-Bold';text-align:start;text-anchor:start;fill:#ffffff;fill-opacity:1"
         d="m 265.44675,456.30159 v 8.51169 h -3.43403 V 443.6808 h 6.22234 q 2.0839,0 3.58078,0.42559 1.51156,0.42558 2.48013,1.21805 0.96857,0.77779 1.42351,1.87844 0.46961,1.10065 0.46961,2.45078 0,1.10065 -0.33753,2.05455 -0.32286,0.9539 -0.9539,1.73169 -0.61636,0.77779 -1.54091,1.35013 -0.90987,0.57234 -2.06922,0.89519 0.64571,0.38156 1.10065,1.0713 l 5.7087,8.05676 h -3.06714 q -0.90987,0 -1.32078,-0.70441 l -4.93091,-7.11754 q -0.24948,-0.36688 -0.54299,-0.52831 -0.29351,-0.16143 -0.88052,-0.16143 z m 0,-2.49481 h 2.70026 q 1.17402,0 2.05454,-0.27883 0.88052,-0.29351 1.46754,-0.80714 0.58701,-0.51364 0.88052,-1.21806 0.2935,-0.71909 0.2935,-1.58493 0,-1.73169 -1.14467,-2.64156 -1.14468,-0.90987 -3.46338,-0.90987 h -2.78831 z" />
      <path
         id="path6134"
         style="font-style:normal;font-variant:normal;font-weight:600;font-stretch:normal;font-family:Lato;-inkscape-font-specification:'Lato Semi-Bold';text-align:start;text-anchor:start;fill:#ffffff;fill-opacity:1"
         d="m 291.69404,447.29093 q -0.16143,0.26416 -0.33753,0.39624 -0.1761,0.1174 -0.44026,0.1174 -0.27883,0 -0.63104,-0.23481 -0.33753,-0.2348 -0.85117,-0.51363 -0.49896,-0.29351 -1.1887,-0.52831 -0.68974,-0.24948 -1.64364,-0.24948 -0.88052,0 -1.55558,0.22013 -0.66039,0.22013 -1.11533,0.61636 -0.45494,0.39623 -0.68974,0.93922 -0.22013,0.52831 -0.22013,1.15935 0,0.80715 0.42558,1.35013 0.42559,0.52831 1.11533,0.90987 0.70442,0.38156 1.59961,0.67507 0.8952,0.27883 1.81974,0.60169 0.93922,0.32285 1.83442,0.73376 0.89519,0.41091 1.58494,1.04195 0.70441,0.63104 1.13,1.54091 0.42558,0.90987 0.42558,2.21598 0,1.40883 -0.48429,2.64156 -0.48428,1.23273 -1.40883,2.15727 -0.90987,0.90987 -2.26,1.43819 -1.33545,0.52831 -3.05247,0.52831 -1.0126,0 -1.98117,-0.20546 -0.9539,-0.19078 -1.83442,-0.54298 -0.86584,-0.36689 -1.62896,-0.88052 -0.76311,-0.51364 -1.3648,-1.14468 l 0.99792,-1.64364 q 0.13208,-0.20545 0.33753,-0.32286 0.20546,-0.1174 0.45494,-0.1174 0.33753,0 0.74844,0.32286 0.41091,0.30818 0.98325,0.68974 0.58701,0.36688 1.40883,0.68974 0.82182,0.30818 1.96649,0.30818 1.86377,0 2.87637,-0.90987 1.02727,-0.90987 1.02727,-2.50948 0,-0.8952 -0.42558,-1.45286 -0.42559,-0.57234 -1.13,-0.9539 -0.68974,-0.38155 -1.58494,-0.64571 -0.89519,-0.26416 -1.81974,-0.55766 -0.92455,-0.30818 -1.81974,-0.70442 -0.8952,-0.41091 -1.59961,-1.05662 -0.68974,-0.66039 -1.11533,-1.61429 -0.42558,-0.96857 -0.42558,-2.40675 0,-1.14468 0.44026,-2.21598 0.45493,-1.0713 1.3061,-1.89312 0.86585,-0.83649 2.12792,-1.33545 1.26208,-0.49896 2.87637,-0.49896 1.81974,0 3.3313,0.57233 1.52624,0.57234 2.62689,1.62897 z" />
      <path
         id="path6136"
         style="font-style:normal;font-variant:normal;font-weight:600;font-stretch:normal;font-family:Lato;-inkscape-font-specification:'Lato Semi-Bold';text-align:start;text-anchor:start;fill:#ffffff;fill-opacity:1"
         d="m 171.50443,489.83998 h -3.43402 v -9.40688 h -10.61027 v 9.40688 h -3.4487 V 468.7075 h 3.4487 v 9.24546 h 10.61027 v -9.24546 h 3.43402 z" />
      <path
         id="path6138"
         style="font-style:normal;font-variant:normal;font-weight:600;font-stretch:normal;font-family:Lato;-inkscape-font-specification:'Lato Semi-Bold';text-align:start;text-anchor:start;fill:#ffffff;fill-opacity:1"
         d="m 184.87596,487.06635 q 1.21805,0 2.17195,-0.41091 0.96857,-0.41091 1.62896,-1.14468 0.67506,-0.73377 1.02727,-1.76104 0.35221,-1.04195 0.35221,-2.30403 V 468.7075 h 3.41935 v 12.73819 q 0,1.86377 -0.60169,3.44871 -0.58701,1.58493 -1.70234,2.74428 -1.11532,1.14468 -2.71493,1.80507 -1.58494,0.64572 -3.58078,0.64572 -1.99585,0 -3.59546,-0.64572 -1.58494,-0.66039 -2.70026,-1.80507 -1.11533,-1.15935 -1.71702,-2.74428 -0.58701,-1.58494 -0.58701,-3.44871 V 468.7075 h 3.43403 v 12.72352 q 0,1.26208 0.35221,2.30403 0.3522,1.02727 1.01259,1.77571 0.66039,0.73377 1.61429,1.14468 0.96857,0.41091 2.18663,0.41091 z" />
      <path
         id="path6140"
         style="font-style:normal;font-variant:normal;font-weight:600;font-stretch:normal;font-family:Lato;-inkscape-font-specification:'Lato Semi-Bold';text-align:start;text-anchor:start;fill:#ffffff;fill-opacity:1"
         d="M 198.26674,489.83998 V 468.7075 h 7.02948 q 2.0252,0 3.46338,0.39624 1.43818,0.38156 2.36273,1.10065 0.92455,0.71909 1.35013,1.76104 0.44026,1.02727 0.44026,2.3187 0,0.74844 -0.2348,1.45286 -0.22013,0.70441 -0.70442,1.3061 -0.46961,0.60169 -1.1887,1.10065 -0.71909,0.48429 -1.70234,0.80715 2.24532,0.46961 3.36065,1.65831 1.13,1.1887 1.13,3.0965 0,1.35013 -0.51364,2.48013 -0.49896,1.11532 -1.46753,1.93714 -0.9539,0.80714 -2.36273,1.26208 -1.40883,0.45493 -3.2139,0.45493 z m 3.43403,-9.42156 v 6.70663 h 4.25584 q 1.15935,0 1.95182,-0.26416 0.80715,-0.27883 1.30611,-0.74844 0.51363,-0.46961 0.73376,-1.10065 0.23481,-0.64571 0.23481,-1.37948 0,-1.49689 -1.02727,-2.34805 -1.0126,-0.86585 -3.2139,-0.86585 z m 0,-2.42143 h 3.43402 q 2.2013,0 3.28728,-0.85117 1.08597,-0.85117 1.08597,-2.45078 0,-1.74636 -1.02727,-2.52416 -1.0126,-0.77779 -3.18455,-0.77779 h -3.59545 z" />
    </g>
  </g>
</svg>
